<svg width="41" height="40" viewBox="0 0 41 40" fill="none" xmlns="http://www.w3.org/2000/svg">
<g id="facebook">
<path id="facebook_2" fill-rule="evenodd" clip-rule="evenodd" d="M0.5 20C0.5 8.95431 9.45431 0 20.5 0C31.5457 0 40.5 8.95431 40.5 20C40.5 31.0457 31.5457 40 20.5 40C9.45431 40 0.5 31.0457 0.5 20ZM20.5 10C26 10 30.5 14.5 30.5 20C30.5 25 26.875 29.25 21.875 30V22.875H24.25L24.75 20H22V18.125C22 17.375 22.375 16.625 23.625 16.625H24.875V14.125C24.875 14.125 23.75 13.875 22.625 13.875C20.375 13.875 18.875 15.25 18.875 17.75V20H16.375V22.875H18.875V29.875C14.125 29.125 10.5 25 10.5 20C10.5 14.5 15 10 20.5 10Z" fill="white"/>
</g>
</svg>
