<svg width="41" height="40" viewBox="0 0 41 40" fill="none" xmlns="http://www.w3.org/2000/svg">
<g id="linkedin">
<path id="linkedin_2" fill-rule="evenodd" clip-rule="evenodd" d="M0.5 20C0.5 8.95431 9.45431 0 20.5 0C31.5457 0 40.5 8.95431 40.5 20C40.5 31.0457 31.5457 40 20.5 40C9.45431 40 0.5 31.0457 0.5 20ZM10.75 16.625V30H15V16.625H10.75ZM10.5 12.375C10.5 13.75 11.5 14.75 12.875 14.75C14.25 14.75 15.25 13.75 15.25 12.375C15.25 11 14.25 10 12.875 10C11.625 10 10.5 11 10.5 12.375ZM26.25 30H30.25V21.75C30.25 17.625 27.75 16.25 25.375 16.25C23.25 16.25 21.75 17.625 21.375 18.5V16.625H17.375V30H21.625V22.875C21.625 21 22.875 20 24.125 20C25.375 20 26.25 20.625 26.25 22.75V30Z" fill="white"/>
</g>
</svg>
