<svg width="31" height="30" viewBox="0 0 31 30" fill="none" xmlns="http://www.w3.org/2000/svg">
<g id="Loction Icon">
<path id="Subtract" fill-rule="evenodd" clip-rule="evenodd" d="M15.9975 24.755C17.8512 23.7935 24.25 20.0204 24.25 13.75C24.25 8.91751 20.3325 5 15.5 5C10.6675 5 6.75 8.91751 6.75 13.75C6.75 20.0204 13.1488 23.7935 15.0025 24.755C15.3185 24.9189 15.6815 24.9189 15.9975 24.755ZM15.5 17.5C17.5711 17.5 19.25 15.8211 19.25 13.75C19.25 11.6789 17.5711 10 15.5 10C13.4289 10 11.75 11.6789 11.75 13.75C11.75 15.8211 13.4289 17.5 15.5 17.5Z" fill="white"/>
</g>
</svg>
