<svg width="31" height="30" viewBox="0 0 31 30" fill="none" xmlns="http://www.w3.org/2000/svg">
<g id="Mail Icon">
<path id="Subtract" fill-rule="evenodd" clip-rule="evenodd" d="M4.2665 11.4391C4.25 12.1128 4.25 12.8776 4.25 13.75V16.25C4.25 19.7855 4.25 21.5533 5.34835 22.6517C6.4467 23.75 8.21447 23.75 11.75 23.75H19.25C22.7855 23.75 24.5533 23.75 25.6517 22.6517C26.75 21.5533 26.75 19.7855 26.75 16.25V13.75C26.75 12.8776 26.75 12.1128 26.7335 11.4391L16.7141 17.0054C15.9591 17.4249 15.0409 17.4249 14.2859 17.0054L4.2665 11.4391ZM4.55371 8.78714C4.65731 8.81315 4.75925 8.85297 4.85705 8.9073L15.5 14.8201L26.1429 8.9073C26.2408 8.85297 26.3427 8.81315 26.4463 8.78714C26.2838 8.19524 26.0344 7.73114 25.6517 7.34835C24.5533 6.25 22.7855 6.25 19.25 6.25H11.75C8.21447 6.25 6.4467 6.25 5.34835 7.34835C4.96556 7.73114 4.71618 8.19524 4.55371 8.78714Z" fill="white"/>
</g>
</svg>
