<svg width="41" height="40" viewBox="0 0 41 40" fill="none" xmlns="http://www.w3.org/2000/svg">
<g id="twitter">
<path id="twitter_2" fill-rule="evenodd" clip-rule="evenodd" d="M0.5 20C0.5 8.95431 9.45431 0 20.5 0C31.5457 0 40.5 8.95431 40.5 20C40.5 31.0457 31.5457 40 20.5 40C9.45431 40 0.5 31.0457 0.5 20ZM28.125 14.375C29 14.25 29.75 14.125 30.5 13.75C30 14.625 29.25 15.375 28.375 15.875C28.625 21.75 24.375 28.125 16.75 28.125C14.5 28.125 12.375 27.375 10.5 26.25C12.625 26.5 14.875 25.875 16.375 24.75C14.5 24.75 13 23.5 12.5 21.875C13.125 22 13.75 21.875 14.375 21.75C12.5 21.25 11.125 19.5 11.125 17.625C11.75 17.875 12.375 18.125 13 18.125C11.25 16.875 10.625 14.5 11.75 12.625C13.875 15.125 16.875 16.75 20.25 16.875C19.625 14.375 21.625 11.875 24.25 11.875C25.375 11.875 26.5 12.375 27.25 13.125C28.25 12.875 29.125 12.625 29.875 12.125C29.625 13.125 29 13.875 28.125 14.375Z" fill="white"/>
</g>
</svg>
