<svg width="31" height="30" viewBox="0 0 31 30" fill="none" xmlns="http://www.w3.org/2000/svg">
<g id="world_fill">
<path id="Subtract" fill-rule="evenodd" clip-rule="evenodd" d="M14.2498 3.81934V9.93509C13.4909 9.85579 12.7493 9.70463 12.0438 9.48544C10.9542 9.14694 9.98259 8.65629 9.1787 8.05337C8.6499 7.65677 8.20402 7.21954 7.84476 6.75662C9.56573 5.15788 11.7881 4.09146 14.2498 3.81934ZM16.7498 3.81934V9.93509C17.5086 9.85579 18.2502 9.70463 18.9558 9.48544C20.0454 9.14694 21.0169 8.65629 21.8208 8.05337C22.3496 7.65677 22.7955 7.21954 23.1548 6.75662C21.4338 5.15788 19.2115 4.09146 16.7498 3.81934ZM24.8078 8.68028C24.3718 9.17975 23.8727 9.63945 23.3208 10.0534C22.2676 10.8433 21.0343 11.4576 19.6974 11.8729C18.7498 12.1673 17.7579 12.3594 16.7498 12.4463V13.7501L26.681 13.7501C26.4747 11.8847 25.8123 10.1567 24.8078 8.68028ZM26.6812 16.2501L16.7498 16.2501V17.5538C17.7579 17.6408 18.7498 17.8329 19.6974 18.1272C21.0343 18.5426 22.2676 19.1568 23.3208 19.9468C23.8729 20.3608 24.3721 20.8207 24.8083 21.3204C25.8127 19.8438 26.475 18.1156 26.6812 16.2501ZM23.1553 23.2442C22.796 22.781 22.3499 22.3436 21.8208 21.9468C21.0169 21.3438 20.0454 20.8532 18.9558 20.5147C18.2502 20.2955 17.5086 20.1443 16.7498 20.065V26.182C19.2117 25.9099 21.4343 24.8432 23.1553 23.2442ZM14.2498 26.182V20.065C13.4909 20.1443 12.7493 20.2955 12.0438 20.5147C10.9542 20.8532 9.98259 21.3438 9.1787 21.9468C8.64963 22.3436 8.20356 22.781 7.84421 23.2442C9.56526 24.8432 11.7878 25.9099 14.2498 26.182ZM6.19124 21.3204C6.62739 20.8207 7.12662 20.3608 7.6787 19.9468C8.73198 19.1568 9.96518 18.5426 11.3021 18.1272C12.2497 17.8329 13.2417 17.6408 14.2498 17.5538V16.2501L4.31836 16.2501C4.52449 18.1156 5.18678 19.8438 6.19124 21.3204ZM4.31849 13.7501L14.2498 13.7501V12.4463C13.2417 12.3594 12.2497 12.1673 11.3021 11.8729C9.96518 11.4576 8.73198 10.8433 7.6787 10.0534C7.12681 9.63945 6.62774 9.17975 6.19171 8.68028C5.18721 10.1567 4.52481 11.8847 4.31849 13.7501Z" fill="white"/>
</g>
</svg>
