<svg width="41" height="40" viewBox="0 0 41 40" fill="none" xmlns="http://www.w3.org/2000/svg">
<g id="twitter">
<path id="twitter_2" fill-rule="evenodd" clip-rule="evenodd" d="M0.5 20C0.5 8.95431 9.45431 0 20.5 0C31.5457 0 40.5 8.95431 40.5 20C40.5 31.0457 31.5457 40 20.5 40C9.45431 40 0.5 31.0457 0.5 20ZM28.125 14.375C29 14.25 29.75 14.125 30.5 13.75C30 14.625 29.25 15.375 28.375 15.875C28.625 21.75 24.375 28.125 16.75 28.125C14.5 28.125 12.375 27.375 10.5 26.25C12.625 26.5 14.875 25.875 16.375 24.75C14.5 24.75 13 23.5 12.5 21.875C13.125 22 13.75 21.875 14.375 21.75C12.5 21.25 11.125 19.5 11.125 17.625C11.75 17.875 12.375 18.125 13 18.125C11.25 16.875 10.625 14.5 11.75 12.625C13.875 15.125 16.875 16.75 20.25 16.875C19.625 14.375 21.625 11.875 24.25 11.875C25.375 11.875 26.5 12.375 27.25 13.125C28.25 12.875 29.125 12.625 29.875 12.125C29.625 13.125 29 13.875 28.125 14.375Z" fill="white"/>
<ellipse id="Ellipse 368" cx="21" cy="20.5" rx="13.5" ry="12.5" fill="white"/>
<path id="image 26 (Traced)" fill-rule="evenodd" clip-rule="evenodd" d="M18.5459 12.0185C17.5545 12.0343 15.3219 12.118 14.5206 12.1695C12.0436 12.3287 11.4061 12.5115 10.6635 13.2753C10.2611 13.6893 10.0136 14.2085 9.86797 14.944C9.35098 17.5559 9.38489 23.1679 9.93107 25.3882C10.1755 26.3817 10.8769 27.1667 11.8069 27.4877C12.3671 27.6811 13.7535 27.8292 16.0497 27.9412C17.6601 28.0196 24.362 28.0196 26.0119 27.9411C28.0216 27.8455 29.2035 27.7376 29.8798 27.5881C31.0268 27.3344 31.8348 26.4809 32.0979 25.2452C32.4071 23.7931 32.5677 20.9314 32.4729 18.5613C32.3216 14.7765 32.0022 13.6441 30.8741 12.8927C30.4491 12.6097 30.1645 12.5038 29.5299 12.3925C27.8653 12.1006 23.258 11.9437 18.5459 12.0185ZM21.6672 18.2649C23.2652 19.18 24.5983 19.9519 24.6296 19.9804C24.6739 20.0206 24.0506 20.3966 21.8411 21.6625C20.2761 22.5592 18.9299 23.331 18.8495 23.3777L18.7033 23.4625V20.0318C18.7033 18.1449 18.7164 16.6012 18.7325 16.6012C18.7486 16.6012 20.0692 17.3498 21.6672 18.2649Z" fill="black"/>
</g>
</svg>
