<svg width="22" height="19" viewBox="0 0 22 19" fill="none" xmlns="http://www.w3.org/2000/svg">
<path id="Vector" d="M16.25 7.25001L18.5 9.50001M18.5 9.50001L20.75 11.75M18.5 9.50001L20.75 7.25001M18.5 9.50001L16.25 11.75M5.75 5.75001L10.47 1.03001C10.575 0.925193 10.7086 0.853848 10.8541 0.824996C10.9996 0.796143 11.1504 0.811079 11.2874 0.867914C11.4244 0.924749 11.5415 1.02093 11.6238 1.1443C11.7062 1.26767 11.7501 1.41268 11.75 1.56101V17.44C11.7499 17.5883 11.7058 17.7331 11.6234 17.8563C11.541 17.9796 11.4239 18.0756 11.2869 18.1323C11.15 18.189 10.9993 18.2039 10.8539 18.175C10.7085 18.1461 10.5749 18.0748 10.47 17.97L5.75 13.25H3.51C2.63 13.25 1.806 12.744 1.572 11.896C1.35752 11.1154 1.24922 10.3095 1.25 9.50001C1.25 8.67001 1.362 7.86701 1.572 7.10501C1.806 6.25701 2.63 5.75001 3.51 5.75001H5.75Z" stroke="black" stroke-width="1.5" stroke-linecap="round" stroke-linejoin="round"/>
</svg>
