<svg width="77" height="77" viewBox="0 0 77 77" fill="none" xmlns="http://www.w3.org/2000/svg">
<g id="Group 1171274774">
<g id="Group 1171274768">
<g id="Vector" filter="url(#filter0_f_3397_8904)">
<path d="M38.4994 62.2758L40.1227 55.6137C41.0525 51.7933 42.9759 48.3042 45.6874 45.5196C48.3988 42.7351 51.7963 40.7598 55.5165 39.805L62.0036 38.1379L55.5165 36.4708C51.7963 35.516 48.3988 33.5407 45.6874 30.7561C42.9759 27.9716 41.0525 24.4825 40.1227 20.6621L38.4994 14L36.876 20.6621C35.9468 24.4817 34.0243 27.9702 31.314 30.7547C28.6037 33.5392 25.2076 35.515 21.4886 36.4708L14.9951 38.1379L21.4886 39.805C25.2076 40.7608 28.6037 42.7366 31.314 45.5211C34.0243 48.3055 35.9468 51.7941 36.876 55.6137L38.4994 62.2758Z" fill="url(#paint0_linear_3397_8904)"/>
</g>
<path id="Vector_2" d="M38.4993 47.1886L39.0974 44.6904C39.4399 43.2577 40.1486 41.9493 41.1475 40.9051C42.1465 39.8609 43.3982 39.1201 44.7688 38.7621L47.1588 38.1369L44.7688 37.5117C43.3982 37.1537 42.1465 36.413 41.1475 35.3688C40.1486 34.3245 39.4399 33.0161 39.0974 31.5835L38.4993 29.0852L37.9012 31.5835C37.5589 33.0158 36.8506 34.324 35.8521 35.3682C34.8535 36.4124 33.6023 37.1533 32.2322 37.5117L29.8398 38.1369L32.2322 38.7621C33.6023 39.1205 34.8535 39.8614 35.8521 40.9056C36.8506 41.9498 37.5589 43.258 37.9012 44.6904L38.4993 47.1886Z" fill="#E3FFFF"/>
</g>
</g>
<defs>
<filter id="filter0_f_3397_8904" x="0.995117" y="0" width="75.0088" height="76.2759" filterUnits="userSpaceOnUse" color-interpolation-filters="sRGB">
<feFlood flood-opacity="0" result="BackgroundImageFix"/>
<feBlend mode="normal" in="SourceGraphic" in2="BackgroundImageFix" result="shape"/>
<feGaussianBlur stdDeviation="7" result="effect1_foregroundBlur_3397_8904"/>
</filter>
<linearGradient id="paint0_linear_3397_8904" x1="55.6756" y1="30.7108" x2="28.5637" y2="30.5077" gradientUnits="userSpaceOnUse">
<stop stop-color="#2835FF"/>
<stop offset="1" stop-color="#B793FF"/>
</linearGradient>
</defs>
</svg>
