<svg width="62" height="61" viewBox="0 0 62 61" fill="none" xmlns="http://www.w3.org/2000/svg">
<g id="Group 1171274774">
<g id="Group 1171274766">
<g id="Vector" filter="url(#filter0_f_3977_8951)">
<path d="M40.2161 24.1221L40.3607 22.728C40.4434 21.9285 40.7449 21.1537 41.2329 20.4864C41.721 19.8191 42.3774 19.2844 43.1317 18.9395L44.4471 18.3376L43.0332 18.2755C42.2224 18.2402 41.4493 17.9882 40.7966 17.5466C40.1439 17.1049 39.6361 16.4902 39.3276 15.7681L38.7892 14.5091L38.6446 15.9032C38.562 16.7025 38.2607 17.4772 37.7729 18.1444C37.285 18.8116 36.629 19.3464 35.8749 19.6915L34.5582 20.2936L35.9735 20.3554C36.7841 20.391 37.5569 20.6431 38.2093 21.0848C38.8618 21.5265 39.3693 22.1411 39.6777 22.8631L40.2161 24.1221Z" fill="url(#paint0_linear_3977_8951)"/>
</g>
<path id="Vector_2" d="M39.7698 21.1182L39.8218 20.5958C39.8515 20.2963 39.9619 20.0062 40.1412 19.7567C40.3205 19.5072 40.5619 19.3077 40.8396 19.1793L41.3239 18.9554L40.8027 18.9303C40.5038 18.9161 40.2186 18.8207 39.9775 18.6543C39.7365 18.4879 39.5488 18.2569 39.4344 17.9859L39.2347 17.5133L39.1828 18.0356C39.1531 18.3351 39.0427 18.6251 38.8636 18.8745C38.6844 19.124 38.4431 19.3236 38.1654 19.452L37.6806 19.676L38.2024 19.701C38.5012 19.7153 38.7863 19.8108 39.0272 19.9772C39.2682 20.1436 39.4558 20.3746 39.5702 20.6456L39.7698 21.1182Z" fill="#E3FFFF"/>
</g>
<g id="Group 1171274769">
<g id="Vector_3" filter="url(#filter1_f_3977_8951)">
<path d="M27.4326 19.9142L27.8177 19.1862C28.0384 18.7686 28.3745 18.4285 28.7903 18.2022C29.206 17.9759 29.6857 17.8719 30.178 17.9014L31.0365 17.9526L30.2689 17.5058C29.8287 17.2498 29.4567 16.885 29.1928 16.4506C28.9288 16.0162 28.7829 15.5284 28.7705 15.0395L28.7486 14.1868L28.3636 14.9149C28.143 15.3324 27.8069 15.6725 27.3913 15.8988C26.9757 16.1252 26.4962 16.2292 26.004 16.1999L25.1447 16.1485L25.9131 16.5955C26.3532 16.8516 26.725 17.2164 26.9888 17.6507C27.2526 18.0851 27.3984 18.5727 27.4107 19.0616L27.4326 19.9142Z" fill="url(#paint1_linear_3977_8951)"/>
</g>
<path id="Vector_4" d="M27.8438 18.1244L27.9868 17.851C28.0688 17.6941 28.1933 17.5661 28.347 17.4805C28.5006 17.395 28.6777 17.3552 28.8593 17.3653L29.1759 17.3828L28.8934 17.2169C28.7313 17.1219 28.5946 16.9859 28.4979 16.8237C28.4012 16.6615 28.348 16.4791 28.3441 16.296L28.3373 15.9766L28.1942 16.2501C28.1123 16.4069 27.9878 16.5349 27.8342 16.6204C27.6806 16.706 27.5036 16.7459 27.3221 16.7358L27.0052 16.7182L27.288 16.8842C27.45 16.9793 27.5866 17.1152 27.6833 17.2774C27.7799 17.4396 27.8331 17.622 27.8369 17.8051L27.8438 18.1244Z" fill="#E3FFFF"/>
</g>
<g id="Group 1171274768">
<g id="Vector_5" filter="url(#filter2_f_3977_8951)">
<path d="M31.1113 46.7616L32.2596 42.3011C32.9172 39.7431 34.2777 37.4071 36.1955 35.5427C38.1134 33.6784 40.5165 32.3558 43.1478 31.7166L47.7363 30.6004L43.1478 29.4842C40.5165 28.8449 38.1134 27.5224 36.1955 25.658C34.2777 23.7936 32.9172 21.4576 32.2596 18.8996L31.1113 14.4391L29.9631 18.8996C29.3058 21.457 27.946 23.7927 26.029 25.6571C24.112 27.5214 21.7098 28.8442 19.0793 29.4842L14.4863 30.6004L19.0793 31.7166C21.7098 32.3565 24.112 33.6793 26.029 35.5437C27.946 37.408 29.3058 39.7437 29.9631 42.3011L31.1113 46.7616Z" fill="url(#paint2_linear_3977_8951)"/>
</g>
<path id="Vector_6" d="M31.1113 36.6602L31.5344 34.9875C31.7766 34.0283 32.2779 33.1523 32.9845 32.4531C33.691 31.754 34.5764 31.2581 35.5458 31.0183L37.2363 30.5998L35.5458 30.1812C34.5764 29.9415 33.691 29.4455 32.9845 28.7464C32.2779 28.0472 31.7766 27.1712 31.5344 26.212L31.1113 24.5393L30.6883 26.212C30.4461 27.171 29.9452 28.0469 29.2389 28.746C28.5326 29.4451 27.6476 29.9412 26.6785 30.1812L24.9863 30.5998L26.6785 31.0183C27.6476 31.2583 28.5326 31.7544 29.2389 32.4535C29.9452 33.1526 30.4461 34.0285 30.6883 34.9875L31.1113 36.6602Z" fill="#E3FFFF"/>
</g>
</g>
<defs>
<filter id="filter0_f_3977_8951" x="27.5586" y="7.50909" width="23.8887" height="23.613" filterUnits="userSpaceOnUse" color-interpolation-filters="sRGB">
<feFlood flood-opacity="0" result="BackgroundImageFix"/>
<feBlend mode="normal" in="SourceGraphic" in2="BackgroundImageFix" result="shape"/>
<feGaussianBlur stdDeviation="3.5" result="effect1_foregroundBlur_3977_8951"/>
</filter>
<filter id="filter1_f_3977_8951" x="18.1445" y="7.18683" width="19.8916" height="19.7274" filterUnits="userSpaceOnUse" color-interpolation-filters="sRGB">
<feFlood flood-opacity="0" result="BackgroundImageFix"/>
<feBlend mode="normal" in="SourceGraphic" in2="BackgroundImageFix" result="shape"/>
<feGaussianBlur stdDeviation="3.5" result="effect1_foregroundBlur_3977_8951"/>
</filter>
<filter id="filter2_f_3977_8951" x="0.486328" y="0.439148" width="61.25" height="60.3224" filterUnits="userSpaceOnUse" color-interpolation-filters="sRGB">
<feFlood flood-opacity="0" result="BackgroundImageFix"/>
<feBlend mode="normal" in="SourceGraphic" in2="BackgroundImageFix" result="shape"/>
<feGaussianBlur stdDeviation="7" result="effect1_foregroundBlur_3977_8951"/>
</filter>
<linearGradient id="paint0_linear_3977_8951" x1="42.8964" y1="17.122" x2="37.1476" y2="17.9285" gradientUnits="userSpaceOnUse">
<stop stop-color="#2835FF"/>
<stop offset="1" stop-color="#B793FF"/>
</linearGradient>
<linearGradient id="paint1_linear_3977_8951" x1="30.4459" y1="16.8286" x2="26.9956" y2="16.0065" gradientUnits="userSpaceOnUse">
<stop stop-color="#2835FF"/>
<stop offset="1" stop-color="#B793FF"/>
</linearGradient>
<linearGradient id="paint2_linear_3977_8951" x1="43.2604" y1="25.6277" x2="24.0838" y2="25.4759" gradientUnits="userSpaceOnUse">
<stop stop-color="#2835FF"/>
<stop offset="1" stop-color="#B793FF"/>
</linearGradient>
</defs>
</svg>
