<svg width="38" height="31" viewBox="0 0 38 31" fill="none" xmlns="http://www.w3.org/2000/svg">
<path d="M24.6004 16C15.0004 16 15.0004 6.40002 15.0004 6.40002C15.0004 16 5.40039 16 5.40039 16C15.0004 16 15.0004 25.6 15.0004 25.6C15.0004 16 24.6004 16 24.6004 16Z" fill="white"/>
<path d="M15 6.4C15 6.4 15 16 24.6 16M15 6.4C15 16 5.4 16 5.4 16M15 6.4V4M24.6 16C24.6 16 15 16 15 25.6M24.6 16H27M5.4 16C15 16 15 25.6 15 25.6M5.4 16H3M15 25.6V28" stroke="white" stroke-width="0.4" stroke-linecap="round" stroke-linejoin="round"/>
<path d="M35.6598 6.50003C31.4998 6.50003 31.4998 2.34003 31.4998 2.34003C31.4998 6.50003 27.3398 6.50003 27.3398 6.50003C31.4998 6.50003 31.4998 10.66 31.4998 10.66C31.4998 6.50003 35.6598 6.50003 35.6598 6.50003Z" fill="white"/>
<path d="M31.4998 2.33999C31.4998 2.33999 31.4998 6.49999 35.6598 6.49999M31.4998 2.33999C31.4998 6.49999 27.3398 6.49999 27.3398 6.49999M31.4998 2.33999V1.29999M35.6598 6.49999C35.6598 6.49999 31.4998 6.49999 31.4998 10.66M35.6598 6.49999H36.6998M27.3398 6.49999C31.4998 6.49999 31.4998 10.66 31.4998 10.66M27.3398 6.49999H26.2998M31.4998 10.66V11.7" stroke="white" stroke-width="0.4" stroke-linecap="round" stroke-linejoin="round"/>
<path d="M34.9201 23C33.0001 23 33.0001 21.08 33.0001 21.08C33.0001 23 31.0801 23 31.0801 23C33.0001 23 33.0001 24.92 33.0001 24.92C33.0001 23 34.9201 23 34.9201 23Z" fill="white"/>
<path d="M32.9996 21.08C32.9996 21.08 32.9996 23 34.9196 23M32.9996 21.08C32.9996 23 31.0796 23 31.0796 23M32.9996 21.08V20.6M34.9196 23C34.9196 23 32.9996 23 32.9996 24.92M34.9196 23H35.3996M31.0796 23C32.9996 23 32.9996 24.92 32.9996 24.92M31.0796 23H30.5996M32.9996 24.92V25.4" stroke="white" stroke-width="0.4" stroke-linecap="round" stroke-linejoin="round"/>
</svg>
