<svg width="19" height="20" viewBox="0 0 19 20" fill="none" xmlns="http://www.w3.org/2000/svg">
<path id="Vector" d="M6.07235 6.87336C6.29095 6.77363 6.46633 6.59854 6.56641 6.3801L8.80601 1.49209C9.16304 0.71286 10.2708 0.714527 10.6255 1.49483L12.8448 6.37736C12.9449 6.59747 13.1213 6.77388 13.3414 6.87393L18.2239 9.09326C19.0042 9.44794 19.0059 10.5557 18.2267 10.9127L13.3386 13.1523C13.1202 13.2524 12.9451 13.4278 12.8454 13.6464L10.6249 18.5137C10.2697 19.2923 9.16415 19.294 8.80659 18.5164L6.56583 13.6437C6.46608 13.4267 6.29201 13.2527 6.07509 13.1529L1.20234 10.9122C0.424783 10.5546 0.426449 9.44904 1.20509 9.09383L6.07235 6.87336Z" fill="white"/>
</svg>
