<svg xmlns="http://www.w3.org/2000/svg" viewBox="0 0 654 222"><defs><style>.cls-1{fill:#fff;}.cls-2{fill:#ffb700;}</style></defs><title>Artboard 9</title><g id="Logo_files" data-name="Logo files"><path class="cls-1" d="M156.34,176.83c0-3.05-1.26-4.71-4.6-4.71-1,0-4.79.18-4.79,5.61v8.78c0,5.69,1.66,7.13,4.79,7.13a8.14,8.14,0,0,0,4.64-1.16v-7.77h-4.79v-2.88h8.1v12.63a15.92,15.92,0,0,1-7.95,1.95c-5.51,0-8.17-2.84-8.17-10v-8.53c0-5.18,2.66-8.49,8.17-8.49s8.27,2.05,8.06,7.48Z"/><path class="cls-1" d="M170.21,195.87v-26h3.31V193h9.53v2.88Z"/><path class="cls-1" d="M190.4,186.37v-8.53c0-5.18,2.67-8.49,8.17-8.49s8.17,3.31,8.17,8.49v8.53c0,7.2-2.66,10-8.17,10S190.4,193.57,190.4,186.37Zm13,.14v-8.78c0-5.43-3.74-5.61-4.79-5.61s-4.78.18-4.78,5.61v8.78c0,5.69,1.65,7.13,4.78,7.13S203.36,192.2,203.36,186.51Z"/><path class="cls-1" d="M217.15,195.87v-26h8.46c3.6,0,4.82,1.22,5.79,2.66a7,7,0,0,1,1,3.46c0,3.24-1.12,5.39-4.47,6.15v.18c3.71.43,5.33,2.66,5.33,6.22,0,6.66-4.86,7.31-7.81,7.31Zm3.31-15h4.83c2.59,0,3.84-1.62,3.84-4.14a3.64,3.64,0,0,0-4-3.92h-4.68Zm0,12.16h4.68a4.39,4.39,0,0,0,4.79-4.43c0-4.14-2.56-4.85-5.94-4.85h-3.53Z"/><path class="cls-1" d="M249,169.89h4.21l8.46,26H258l-1.87-6.19h-10l-1.94,6.19h-3.35Zm2,3.06H251l-4.06,13.85h8.31Z"/><path class="cls-1" d="M269.46,195.87v-26h3.31V193h9.54v2.88Z"/><path class="cls-1" d="M307.94,169.89h4.21l8.46,26H316.9L315,189.68H305l-1.94,6.19H299.7Zm2,3.06h-.08l-4.06,13.85h8.31Z"/><path class="cls-1" d="M339.83,177.05c0-1.48-.07-3-.75-3.78a4.37,4.37,0,0,0-2.92-1.11c-2.73,0-3.81,1.65-3.92,2s-.75.94-.75,5.4v6.94c0,6.37,2.08,7.13,4.64,7.13,1,0,4.06-.36,4.1-5.44h3.42c.14,8.21-5.65,8.21-7.34,8.21-3.24,0-8.21-.22-8.21-10.29v-7.34c0-7.34,3.24-9.43,8.35-9.43s7.12,2.66,6.8,7.7Z"/><path class="cls-1" d="M364.17,177.05c0-1.48-.07-3-.76-3.78a4.34,4.34,0,0,0-2.91-1.11c-2.74,0-3.82,1.65-3.92,2s-.76.94-.76,5.4v6.94c0,6.37,2.09,7.13,4.64,7.13,1,0,4.07-.36,4.11-5.44H368c.15,8.21-5.65,8.21-7.34,8.21-3.23,0-8.2-.22-8.2-10.29v-7.34c0-7.34,3.24-9.43,8.35-9.43s7.12,2.66,6.8,7.7Z"/><path class="cls-1" d="M377.06,195.87v-26h13.39v2.88H380.37v8.34h9.36V184h-9.36v9h10.29v2.88Z"/><path class="cls-1" d="M401.94,188.13v.76c0,3.52,2.23,4.64,4.35,4.64,2.63,0,4.64-1.12,4.64-4.21,0-5.76-11.66-5.11-11.66-12.92,0-4.6,3.28-7.05,7.63-7.05,4.75,0,7.41,2.3,7.2,7.59h-3.46c0-2.84-.86-4.71-4-4.71-2,0-4,1-4,3.81,0,5.72,11.65,4.9,11.65,13.13,0,5.47-3.77,7.24-8.05,7.24-7.67.07-7.67-5.79-7.6-8.28Z"/><path class="cls-1" d="M426.27,188.13v.76c0,3.52,2.23,4.64,4.36,4.64,2.62,0,4.64-1.12,4.64-4.21,0-5.76-11.66-5.11-11.66-12.92,0-4.6,3.27-7.05,7.63-7.05,4.75,0,7.41,2.3,7.19,7.59H435c0-2.84-.86-4.71-4-4.71-2,0-4,1-4,3.81,0,5.72,11.66,4.9,11.66,13.13,0,5.47-3.78,7.24-8.06,7.24-7.66.07-7.66-5.79-7.59-8.28Z"/><path class="cls-1" d="M460.8,195.87v-26h7.7c3.49,0,7.23,1.3,7.23,7.41,0,5.9-4.61,7.12-7.27,7.12h-4.35v11.45Zm3.31-14.32h3.63c1.37,0,4.61-.36,4.61-4.43s-3-4.35-3.67-4.35h-4.57Z"/><path class="cls-1" d="M487.94,183.92v12h-3.31v-26h9c4.6,0,6.22,3.24,6.22,6.48a5.6,5.6,0,0,1-4.75,5.93v.07c3,.47,4.07,1.48,4.25,6.7a38.28,38.28,0,0,0,.9,6.8h-3.46c-.93-1.8-.72-5.18-1-8.64-.26-3.16-2.81-3.31-3.93-3.31Zm0-2.88h5c2.38,0,3.53-2,3.53-4.31,0-1.87-.94-4-3.49-4h-5Z"/><path class="cls-1" d="M508.93,186.37v-8.53c0-5.18,2.66-8.49,8.17-8.49s8.16,3.31,8.16,8.49v8.53c0,7.2-2.66,10-8.16,10S508.93,193.57,508.93,186.37Zm12.95.14v-8.78c0-5.43-3.74-5.61-4.78-5.61s-4.79.18-4.79,5.61v8.78c0,5.69,1.66,7.13,4.79,7.13S521.88,192.2,521.88,186.51Z"/><path class="cls-1" d="M547.8,176.83c0-3.05-1.26-4.71-4.6-4.71-1.05,0-4.79.18-4.79,5.61v8.78c0,5.69,1.66,7.13,4.79,7.13a8.14,8.14,0,0,0,4.64-1.16v-7.77h-4.79v-2.88h8.1v12.63a15.92,15.92,0,0,1-7.95,1.95c-5.51,0-8.17-2.84-8.17-10v-8.53c0-5.18,2.66-8.49,8.17-8.49s8.27,2.05,8.06,7.48Z"/><path class="cls-1" d="M564.91,183.92v12H561.6v-26h8.95c4.61,0,6.23,3.24,6.23,6.48A5.6,5.6,0,0,1,572,182.3v.07c3,.47,4.07,1.48,4.25,6.7a38.28,38.28,0,0,0,.9,6.8h-3.46c-.93-1.8-.72-5.18-1-8.64-.25-3.16-2.8-3.31-3.92-3.31Zm0-2.88h5c2.38,0,3.53-2,3.53-4.31,0-1.87-.94-4-3.49-4h-5Z"/><path class="cls-1" d="M591.87,169.89h4.21l8.46,26h-3.71L599,189.68h-10L587,195.87h-3.35Zm2,3.06h-.07l-4.06,13.85h8.31Z"/><path class="cls-1" d="M615.45,195.87h-3.09v-26h5.36l6.54,21.8h.08l6.62-21.8h5.47v26h-3.31v-23.1h-.07l-7.27,23.1h-3.13l-7.13-23.1h-.07Z"/><path class="cls-1" d="M493.51,65.31c.55-6.67,3.29-11.27,7.33-14.22s9.3-4.27,14.77-4.27c14.66,0,20.24,7.44,20.24,18.06v37.74a17.59,17.59,0,0,0,.77,4.81H522.83c-.32-1.53-.54-3.39-1-5.8a22.72,22.72,0,0,1-16.41,6.9c-8.32,0-13.68-4.6-13.68-14.23,0-13.78,13.13-19.69,30.31-24.83V65.09C522.07,60,518.9,58,515,58a7.41,7.41,0,0,0-7.66,7.33Zm28.56,13c-8.21,2.85-16.52,7.44-16.52,13.67,0,3.94,2.41,6.24,6.13,6.24,4.15,0,7.1-2.19,10.39-5.47Z"/><path class="cls-1" d="M545.86,65.31c.55-6.67,3.28-11.27,7.33-14.22s9.3-4.27,14.77-4.27c14.66,0,20.24,7.44,20.24,18.06v37.74a17.59,17.59,0,0,0,.77,4.81H575.18c-.33-1.53-.55-3.39-1-5.8a22.72,22.72,0,0,1-16.41,6.9c-8.32,0-13.68-4.6-13.68-14.23,0-13.78,13.13-19.69,30.3-24.83V65.09c0-5.14-3.17-7.11-7.1-7.11a7.41,7.41,0,0,0-7.66,7.33Zm28.55,13c-8.2,2.85-16.51,7.44-16.51,13.67,0,3.94,2.4,6.24,6.12,6.24,4.16,0,7.11-2.19,10.39-5.47Z"/><path class="cls-1" d="M624.82,66.08C623,60.61,619.46,58,615.3,58a5.36,5.36,0,0,0-5.58,5.36c0,9.19,26.91,9.41,26.91,27.13,0,11.82-8.31,18.06-19.8,18.06-8.31,0-15.75-2.08-22.43-17l12.37-3.39c1.2,5.58,4.59,9.19,10.06,9.19,4.16,0,6.68-2,6.68-5.25,0-11.38-26.92-8.65-26.92-28.67,0-11.26,9.08-16.63,18.82-16.63,10.28,0,17.39,5.91,20.79,14.88Z"/><polygon class="cls-1" points="468.01 19.25 468.01 55.25 443.19 55.25 443.19 19.25 428 19.25 428 107.38 443.19 107.38 443.19 68.29 468.01 68.29 468.01 107.38 483.2 107.38 483.2 19.25 468.01 19.25"/><path class="cls-2" d="M60.62,109c-6.09,0-12.19-1.45-18.58-1.45-6.09,0-9.28.58-13.93.58-1.45,0-2.47-.14-2.47-1.59s.87-1.75,4.07-1.75c6.53,0,6.82-.29,6.82-2.46V35.54c0-11.47-2.33-12.77-6.39-12.77-6.53,0-7.11-.15-7.11-1.89,0-1,.43-1.16,2.9-1.16,4.5,0,9,.14,14.08.14,3.05,0,10-.87,23.08-.87,18.87,0,27,9.73,27,20S83.85,54.41,79.2,57.6c-2.76,1.89-6,3.48-6,3.92,0,.29,2.76,1,5.66,2.47,6.82,3.48,15.39,8.42,15.39,21,0,16.26-13.5,24-33.68,24M58.74,22.47c-9.58,0-10,1.31-10,4.21v31.5c0,2.32,1.89,2,5.37,2a117.07,117.07,0,0,1,15,.87c4.21-3.19,9-5.95,9-17.41,0-7.26-6.09-21.2-19.3-21.2M54,63c-4.07,0-5.23.58-5.23,3.78v26c0,1.3.44,9.43,1.74,10.88,1.6,1.74,6.24,2.76,10.89,2.76,11,0,19.16-7.55,19.16-20.17C80.51,73.13,69.77,63,54,63"/><path class="cls-2" d="M140.57,72.94a196.79,196.79,0,0,1-30.3,4.42c-2,.13-2.4.76-2.4,3.66,0,17.42,13.51,22.09,23.11,22.09,8.33,0,12.87-3,13.63-3s1,.76,1,1c0,.63-10.73,8.59-21,8.59s-25.75-5.05-25.75-26.14c0-17.8,12-28.4,23.48-28.4,6.57,0,14.65,4.16,19.19,9.47,2.15,2.52,4.17,5.55,4.17,6.56,0,.51-1.77,1-5.18,1.77M121.13,57.79c-9.6,0-12.63,14.39-12.63,16.16,0,.63,0,.76,1.52.76,6.56,0,13.38-1.65,22.85-3.16,1.39-.25,1.51-.51,1.51-1.26,0-3.16-7.44-12.5-13.25-12.5"/><path class="cls-2" d="M186.78,69.53c-1.77,0-3.29-5.18-9.6-5.18-7.32,0-10.1,3-10.1,8.34v26c0,6.19.38,6.19,9.72,6.19,3.29,0,3.41.38,3.41,1.51,0,1.39-.12,1.27-3.41,1.27-1.77,0-10.22-.63-14.26-.63-4.3,0-8.59.63-10.36.63-2.9,0-3.15,0-3.15-1.27s.12-1.51,3.15-1.51c5.18,0,5.56-.13,5.56-1.89V68.39c0-8.58.25-8.83-6.82-8.83-2.27,0-2.27.12-2.27-1.27s-.13-1.89,2-1.89c4.29,0,6.69.25,9.22.25,2,0,4.41-.63,6.44-.63.5,0,1,.38,1,1.39,0,.63-.26,3.41-.26,3.79,0,1.13.13,2,.63,2,1.9,0,7.83-6.57,13.76-6.57,2.28,0,8.08,2.78,8.08,6.06,0,1.26-2,6.82-2.77,6.82"/><path class="cls-2" d="M246.49,108.16c-1.51,0-3.15-.12-4.29-.12-1.51,0-5.3.12-7.07.12-2.27,0-3.41-3.16-8.71-9.21s-10.61-14-11.37-14c-.5,0-2.27,1.27-4.41,2.65s-3.79,2.15-3.79,3.29v7.95c0,5.93-.25,5.93,7.57,5.93,2.91,0,3.41.63,3.41,1.64,0,1.27-.63,1.27-3.41,1.27-1.89,0-7.7-.25-11.74-.25-4.29,0-9,.25-10.73.25-2.9,0-3.66-.13-3.66-1.27s.63-1.64,3.66-1.64c4.29,0,5.43,0,5.43-1.89,0-3.66.38-41,.38-67.67,0-9-1-10.1-4.42-10.1-5.18,0-5.68-.38-5.68-1.26,0-1.26.25-1.77,1.64-1.77,9.09,0,16.54-2.78,17.67-2.78.64,0,.89.38.89,1.14,0,1.64-.25,6.94-.25,11,0,19.19-.76,33.33-.76,53.91,0,.51.12.89.5.89,3.16,0,16.29-11.62,20.33-15.41,4.93-4.67,6.06-6.81,6.06-9.47,0-2-.38-2.27-5.93-2.27-1.9,0-2.53-.25-2.53-1.39s.63-1.26,2.27-1.26c1.27,0,3.67.38,5.18.38s9-.38,10.48-.38c1,0,1.51.13,1.51.5,0,1.14-4.29,6.57-8.2,10.36-6.31,6.18-14.14,11.74-14.14,12.62,0,1.14,2.27,3.54,11.11,14.14,4.29,5.18,8.33,11.36,12.62,11.36,3,0,4,.64,4,1.65s-.88,1.13-3.66,1.13"/><path class="cls-2" d="M287.78,72.94a197,197,0,0,1-30.3,4.42c-2,.13-2.4.76-2.4,3.66,0,17.42,13.51,22.09,23.1,22.09,8.33,0,12.88-3,13.64-3s1,.76,1,1c0,.63-10.73,8.59-21,8.59s-25.75-5.05-25.75-26.14c0-17.8,12-28.4,23.48-28.4,6.56,0,14.64,4.16,19.19,9.47,2.14,2.52,4.16,5.55,4.16,6.56,0,.51-1.76,1-5.17,1.77M268.33,57.79c-9.59,0-12.62,14.39-12.62,16.16,0,.63,0,.76,1.52.76,6.56,0,13.38-1.65,22.85-3.16,1.38-.25,1.51-.51,1.51-1.26,0-3.16-7.45-12.5-13.26-12.5"/><path class="cls-2" d="M315.58,107.66c-1.9,0-4.67-.26-6.95-.26-4.29,0-11,.26-12.75.26-2.9,0-3.16-.26-3.16-1.26s.13-1.65,3.16-1.65c5.18,0,7.32.13,7.32-2.14V33c0-7.95-.75-7.95-6.43-7.95-2.28,0-3.54-.25-3.54-1.64s1-1.39,3.16-1.52c9.84-.63,14.64-2.77,15.4-2.77s1.26.63,1.26,2-.63,6.06-.63,9.84c0,48.11-.63,58.08-.63,61.74,0,10.48.88,11.87,3.15,11.87,6.32,0,6.06.75,6.06,1.77,0,1.26-.88,1.26-5.42,1.26"/><path class="cls-2" d="M360.6,72.94a197,197,0,0,1-30.3,4.42c-2,.13-2.4.76-2.4,3.66,0,17.42,13.51,22.09,23.1,22.09,8.33,0,12.88-3,13.63-3s1,.76,1,1c0,.63-10.73,8.59-20.95,8.59s-25.76-5.05-25.76-26.14c0-17.8,12-28.4,23.49-28.4,6.56,0,14.64,4.16,19.19,9.47,2.14,2.52,4.16,5.55,4.16,6.56,0,.51-1.77,1-5.17,1.77M341.15,57.79c-9.59,0-12.62,14.39-12.62,16.16,0,.63,0,.76,1.51.76,6.57,0,13.39-1.65,22.85-3.16,1.39-.25,1.52-.51,1.52-1.26,0-3.16-7.45-12.5-13.26-12.5"/><path class="cls-2" d="M417.78,59.43c-2.77,0-8.33,15.15-18.3,39.39-8,19.31-13.64,29.54-17.68,37.87-1.38,2.78-2.9,2.91-5.68,3.29-3.78.5-4.67,1.51-7.44,1.51-2.15,0-3.41-.63-3.41-1.26s5.93-1.51,10.22-6.94c4.55-5.69,15.4-20.58,15.4-24.37,0-1.39-10.09-24.75-17-41.16-3.16-7.57-4-8.2-6.31-8.2-2.53,0-2.65-.13-2.65-1.27s.38-1.76,2.65-1.76c3.53,0,4.42.25,7.45.25,3.53,0,7.95-.38,12-.38,2.65,0,3.16.5,3.16,1.89,0,1.14-.51,1.27-3.16,1.27-3,0-3.79.75-3.79,3.66,0,3.66,3.29,8.08,10.86,27.52,1,2.65,2.53,4.8,3,4.8.88,0,1.64-1.77,3.66-7.7,3-9.09,7.58-22.22,7.58-24,0-3.79,0-4.54-4.3-4.54-3.91,0-4.42,0-4.42-1.27,0-1.64.38-1.64,2.66-1.64,3.4,0,5.68.25,9.09.25,1.89,0,5.3-.5,7.07-.5,2,0,2.65.12,2.65,1.51,0,1.14-1.77,1.77-3.29,1.77"/><rect class="cls-1" x="27" y="135" width="330" height="3"/><rect class="cls-1" x="390" y="135" width="246" height="3"/></g></svg>